# xmcd
#
# Track frame offsets: 
#        150
#        17945
#        36662
#        52346
#        68661
#        84460
#        98790
#        115120
#        134513
#        150639
#        167890
#        183347
#        208298
#
# Disc length: 2963 seconds
#
# Revision: 1
# Processed by: cddbd v1.5.2PL0 Copyright (c) Steve Scherf et al.
# Submitted via: ExactAudioCopy v0.99pb4
#
DISCID=be0b910d
DTITLE=Hilltop Hoods - State of the Art
DYEAR=2009
DGENRE=Hip-Hop
TTITLE0=The Return
TTITLE1=Super Official
TTITLE2=Chase That Feeling
TTITLE3=She's So Ugly
TTITLE4=Still Standing
TTITLE5=Classic Example (feat. Pharoahe Monch)
TTITLE6=Chris Farley
TTITLE7=The Light You Burned (feat. Trials)
TTITLE8=Parade of the Dead
TTITLE9=Last Confession
TTITLE10=Hillatoppa
TTITLE11=Fifty in Five
TTITLE12=State of the Art
EXTD=
EXTT0=
EXTT1=
EXTT2=
EXTT3=
EXTT4=
EXTT5=
EXTT6=
EXTT7=
EXTT8=
EXTT9=
EXTT10=
EXTT11=
EXTT12=
PLAYORDER=
